<svg width="76" height="108" viewBox="0 0 76 108" fill="none" xmlns="http://www.w3.org/2000/svg">
<path d="M0.755467 87.9385C5.59046 84.0168 10.3751 80.095 15.1093 76.1732C19.9443 72.1508 24.7793 68.0279 29.6143 63.8045C36.4639 57.7709 40.9967 53.5978 43.2127 51.2849C45.5295 48.9721 47.4433 46.4581 48.9543 43.743C50.5659 40.9274 51.3718 37.9609 51.3718 34.8436C51.3718 31.4246 50.2638 28.5587 48.0477 26.2458C45.9324 23.8324 42.6084 22.6257 38.0756 22.6257C32.9384 22.6257 29.2114 23.7318 26.8946 25.9441C24.6786 28.1564 23.3188 30.8212 22.8151 33.9385H0C0.201458 28.3073 1.35984 23.3799 3.47515 19.1564C5.59046 14.8324 8.41087 11.2626 11.9364 8.44693C15.4619 5.63128 19.5414 3.51955 24.1749 2.11173C28.9092 0.703912 33.9457 0 39.2843 0C44.22 0 48.9039 0.703912 53.336 2.11173C57.8688 3.51955 61.7972 5.63128 65.1213 8.44693C68.4453 11.162 71.0643 14.581 72.9781 18.7039C74.9927 22.8268 76 27.6536 76 33.1844C76 39.1173 74.6905 44.648 72.0716 49.7765C69.5533 54.905 66.33 59.5307 62.4016 63.6536C58.4732 67.7765 54.1922 71.6983 49.5587 75.419C44.9251 79.0391 40.493 82.5084 36.2624 85.8268H74.7913V108H0.755467V87.9385Z" fill="black"/>
</svg>
