<svg width="82" height="108" viewBox="0 0 82 108" fill="none" xmlns="http://www.w3.org/2000/svg">
<path d="M2.95477 32.8177C3.44723 27.1492 4.77687 22.2762 6.9437 18.1989C9.20902 14.0221 12.0653 10.5912 15.5125 7.90607C18.9597 5.22099 22.8994 3.23204 27.3316 1.93922C31.8622 0.646406 36.6883 0 41.8099 0C46.3406 0 50.7727 0.546959 55.1064 1.64088C59.5385 2.63535 63.429 4.27624 66.7777 6.56353C70.2249 8.85083 72.9827 11.8343 75.051 15.5138C77.1194 19.0939 78.1535 23.5193 78.1535 28.79C78.1535 33.0663 77.0701 37.0939 74.9033 40.8729C72.835 44.6519 70.0279 47.5856 66.4822 49.674C71.7023 51.663 75.5927 54.9448 78.1535 59.5193C80.8128 63.9945 82.0932 69.0663 81.9947 74.7348C81.8962 81.1989 80.5666 86.5691 78.0058 90.8453C75.5435 95.1216 72.2932 98.5525 68.2551 101.138C64.2169 103.724 59.8832 105.514 55.2541 106.508C50.7235 107.503 46.1928 108 41.6622 108C30.3356 108 20.7326 105.066 12.8532 99.1989C4.97385 93.232 0.689445 84.7293 0 73.6906H23.6381C24.623 78.0663 26.8391 81.1989 30.2863 83.0884C33.7336 84.8785 37.624 85.7735 41.9577 85.7735C43.9275 85.7735 45.7989 85.5746 47.5717 85.1768C49.4431 84.779 51.0682 84.1326 52.4471 83.2376C53.826 82.2431 54.9094 81 55.6973 79.5083C56.5837 77.9171 57.027 76.0276 57.027 73.8398C57.027 71.0553 56.0913 68.6188 54.2199 66.5304C52.3486 64.442 49.0491 63.3978 44.3215 63.3978H32.2069V43.4088H40.3325C43.1888 43.4088 45.5034 43.011 47.2762 42.2155C49.0491 41.3204 50.3787 40.2762 51.2652 39.0829C52.2501 37.8895 52.841 36.6464 53.038 35.3536C53.3335 33.9613 53.4812 32.8177 53.4812 31.9227C53.3828 28.8398 52.1516 26.453 49.7878 24.7624C47.5225 22.9724 44.617 22.0773 41.0712 22.0773C37.0331 22.0773 33.6843 23.0221 31.025 24.9116C28.4642 26.8011 26.8884 29.4365 26.2974 32.8177H2.95477Z" fill="black"/>
</svg>
