<svg width="19" height="19" viewBox="0 0 19 19" fill="none" xmlns="http://www.w3.org/2000/svg">
<path d="M4.74992 8.70835V11.875M14.2499 7.12502V10.2917M13.4583 3.16669C15.3968 3.16669 16.4453 3.46337 16.967 3.6935C17.0365 3.72414 17.0712 3.73947 17.1715 3.83515C17.2316 3.8925 17.3413 4.06079 17.3695 4.13892C17.4166 4.26927 17.4166 4.34052 17.4166 4.48302V12.9922C17.4166 13.7116 17.4166 14.0713 17.3087 14.2562C17.199 14.4443 17.0931 14.5318 16.8877 14.604C16.6858 14.6751 16.2781 14.5968 15.4629 14.4401C14.8923 14.3305 14.2155 14.25 13.4583 14.25C11.0833 14.25 8.70825 15.8334 5.54159 15.8334C3.60303 15.8334 2.55452 15.5367 2.03283 15.3065C1.96335 15.2759 1.92861 15.2606 1.82835 15.1649C1.76825 15.1075 1.65855 14.9392 1.63033 14.8611C1.58325 14.7308 1.58325 14.6595 1.58325 14.517L1.58325 6.00786C1.58325 5.28842 1.58325 4.9287 1.69114 4.7438C1.80088 4.55572 1.90672 4.46828 2.11213 4.396C2.31407 4.32494 2.7217 4.40326 3.53695 4.5599C4.10757 4.66954 4.78434 4.75002 5.54159 4.75002C7.91658 4.75002 10.2916 3.16669 13.4583 3.16669ZM11.4791 9.50002C11.4791 10.5931 10.593 11.4792 9.49992 11.4792C8.40685 11.4792 7.52075 10.5931 7.52075 9.50002C7.52075 8.40696 8.40685 7.52085 9.49992 7.52085C10.593 7.52085 11.4791 8.40696 11.4791 9.50002Z" stroke="#F75C5C" stroke-width="2" stroke-linecap="round" stroke-linejoin="round"/>
</svg>
