<svg width="27" height="27" viewBox="0 0 27 27" fill="none" xmlns="http://www.w3.org/2000/svg">
<path d="M15.0692 9.757C14.4819 10.1757 13.7632 10.422 12.987 10.422C11.0037 10.422 9.39599 8.81425 9.39599 6.83099C9.39599 4.84774 11.0037 3.23999 12.987 3.23999C14.2726 3.23999 15.4003 3.91553 16.0347 4.93098M7.34399 21.7974H10.0221C10.3713 21.7974 10.7184 21.839 11.0569 21.9221L13.8867 22.6097C14.5007 22.7593 15.1403 22.7738 15.7608 22.6533L18.8895 22.0446C19.7161 21.8836 20.4764 21.4879 21.0722 20.9082L23.2859 18.7549C23.918 18.141 23.918 17.1448 23.2859 16.5298C22.7167 15.9762 21.8154 15.9138 21.1715 16.3834L18.5916 18.2656C18.2221 18.5357 17.7726 18.6811 17.3102 18.6811H14.8189L16.4047 18.681C17.2985 18.681 18.0225 17.9768 18.0225 17.1073V16.7926C18.0225 16.0706 17.5174 15.4411 16.7976 15.2666L14.3501 14.6714C13.9518 14.5748 13.5439 14.526 13.1339 14.526C12.144 14.526 10.3521 15.3456 10.3521 15.3456L7.34399 16.6035M21.708 7.85699C21.708 9.84025 20.1002 11.448 18.117 11.448C16.1337 11.448 14.526 9.84025 14.526 7.85699C14.526 5.87374 16.1337 4.26599 18.117 4.26599C20.1002 4.26599 21.708 5.87374 21.708 7.85699ZM3.23999 16.1676L3.23999 22.1184C3.23999 22.693 3.23999 22.9803 3.35182 23.1998C3.45018 23.3928 3.60714 23.5498 3.8002 23.6482C4.01967 23.76 4.30698 23.76 4.88159 23.76H5.70239C6.277 23.76 6.56431 23.76 6.78378 23.6482C6.97684 23.5498 7.1338 23.3928 7.23216 23.1998C7.34399 22.9803 7.34399 22.693 7.34399 22.1184V16.1676C7.34399 15.593 7.34399 15.3057 7.23216 15.0862C7.1338 14.8931 6.97684 14.7362 6.78378 14.6378C6.56431 14.526 6.277 14.526 5.70239 14.526L4.88159 14.526C4.30698 14.526 4.01967 14.526 3.8002 14.6378C3.60714 14.7362 3.45018 14.8931 3.35182 15.0862C3.23999 15.3057 3.23999 15.593 3.23999 16.1676Z" stroke="black" stroke-width="2" stroke-linecap="round" stroke-linejoin="round"/>
</svg>
