<svg width="23" height="23" viewBox="0 0 23 23" fill="none" xmlns="http://www.w3.org/2000/svg">
<path d="M5.34423 5.34399L7.39623 3.29199M7.39623 3.29199L5.34423 1.23999M7.39623 3.29199H5.34423C3.07766 3.29199 1.24023 5.12941 1.24023 7.39599M17.6562 17.656L15.6042 19.708M15.6042 19.708L17.6562 21.76M15.6042 19.708H17.6562C19.9228 19.708 21.7602 17.8706 21.7602 15.604M12.9543 12.954C13.7568 13.3374 14.6555 13.552 15.6042 13.552C19.0041 13.552 21.7602 10.7959 21.7602 7.39599C21.7602 3.99613 19.0041 1.23999 15.6042 1.23999C12.2044 1.23999 9.44823 3.99613 9.44823 7.39599C9.44823 8.34475 9.66286 9.24338 10.0462 10.046M13.5522 15.604C13.5522 19.0039 10.7961 21.76 7.39623 21.76C3.99637 21.76 1.24023 19.0039 1.24023 15.604C1.24023 12.2041 3.99637 9.44799 7.39623 9.44799C10.7961 9.44799 13.5522 12.2041 13.5522 15.604Z" stroke="black" stroke-width="2" stroke-linecap="round" stroke-linejoin="round"/>
</svg>
