<svg width="223" height="190" viewBox="0 0 223 190" fill="none" xmlns="http://www.w3.org/2000/svg">
<g style="mix-blend-mode:screen">
<path d="M187.559 0.0769348H36.0239C16.641 0.0769348 0.925049 15.9079 0.925049 35.4327V425.218C0.925049 444.743 16.641 460.574 36.0239 460.574H187.559C206.942 460.574 222.658 444.743 222.658 425.218V35.4327C222.658 15.9079 206.942 0.0769348 187.559 0.0769348ZM221.589 424.938C221.589 444.032 206.226 459.508 187.271 459.508H36.3126C17.3573 459.508 1.99416 444.032 1.99416 424.938V35.7235C1.99416 16.6294 17.3573 1.15387 36.3126 1.15387H187.281C206.237 1.15387 221.6 16.6294 221.6 35.7235V424.949L221.589 424.938Z" fill="#706F6F"/>
</g>
</svg>
