<svg width="19" height="19" viewBox="0 0 19 19" fill="none" xmlns="http://www.w3.org/2000/svg">
<path d="M15.0417 7.91669L3.95833 7.91669M15.0417 7.91669L16.5175 10.3763C16.8482 10.9276 17.0136 11.2032 17.0995 11.4999C17.1756 11.7628 17.2056 12.0369 17.1884 12.31C17.1689 12.6183 17.0673 12.9232 16.864 13.5331L16.6994 14.0267C16.388 14.961 16.2323 15.4282 15.9434 15.7736C15.6884 16.0786 15.3608 16.3147 14.9908 16.4602C14.5718 16.625 14.0793 16.625 13.0944 16.625L5.90555 16.625C4.92066 16.625 4.42822 16.625 4.0092 16.4602C3.63919 16.3147 3.31163 16.0786 3.05657 15.7736C2.76773 15.4282 2.612 14.961 2.30055 14.0267L2.13602 13.5331C1.93273 12.9232 1.83109 12.6183 1.81161 12.31C1.79435 12.0369 1.82444 11.7628 1.90054 11.4999C1.98643 11.2032 2.1518 10.9276 2.48254 10.3763L3.95833 7.91669M15.0417 7.91669L15.372 6.7605C15.5286 6.21236 15.6069 5.93829 15.5454 5.72146C15.4915 5.53151 15.3686 5.36856 15.2008 5.26457C15.0092 5.14585 14.7241 5.14585 14.1541 5.14585L4.84592 5.14585C4.27585 5.14585 3.99081 5.14585 3.79922 5.26457C3.63139 5.36856 3.50847 5.53151 3.45459 5.72146C3.39308 5.93829 3.47138 6.21236 3.62799 6.7605L3.95833 7.91669M9.5 5.14585H6.70089C6.28846 5.14585 5.89293 4.97904 5.6013 4.68211C5.30967 4.38517 5.14583 3.98245 5.14583 3.56252C5.14583 3.14259 5.30967 2.73987 5.6013 2.44293C5.89293 2.146 6.28846 1.97919 6.70089 1.97919C8.87798 1.97919 9.5 5.14585 9.5 5.14585ZM9.5 5.14585H12.2991C12.7115 5.14585 13.1071 4.97904 13.3987 4.68211C13.6903 4.38517 13.8542 3.98245 13.8542 3.56252C13.8542 3.14259 13.6903 2.73987 13.3987 2.44293C13.1071 2.146 12.7115 1.97919 12.2991 1.97919C10.122 1.97919 9.5 5.14585 9.5 5.14585Z" stroke="#F75C5C" stroke-width="2" stroke-linecap="round" stroke-linejoin="round"/>
</svg>
