<svg width="140" height="200" viewBox="0 0 140 200" fill="none" xmlns="http://www.w3.org/2000/svg">
<path d="M1.39165 162.849C10.2982 155.587 19.112 148.324 27.833 141.061C36.7396 133.613 45.6461 125.978 54.5527 118.156C67.1703 106.983 75.5202 99.2551 79.6024 94.9721C83.8701 90.689 87.3956 86.0335 90.1789 81.0056C93.1478 75.7914 94.6322 70.2979 94.6322 64.5251C94.6322 58.1937 92.5911 52.8864 88.5089 48.6033C84.6123 44.1341 78.4891 41.8994 70.1392 41.8994C60.6759 41.8994 53.8105 43.9478 49.5427 48.0447C45.4606 52.1415 42.9556 57.0764 42.0278 62.8492H0C0.371107 52.4209 2.50497 43.2961 6.40159 35.4749C10.2982 27.4674 15.4937 20.8566 21.9881 15.6425C28.4824 10.4283 35.9974 6.51769 44.5328 3.91062C53.2538 1.30354 62.5315 0 72.3658 0C81.4579 0 90.0861 1.30354 98.2505 3.91062C106.6 6.51769 113.837 10.4283 119.96 15.6425C126.084 20.6704 130.908 27.0019 134.433 34.6369C138.144 42.2719 140 51.2104 140 61.4525C140 72.4395 137.588 82.6816 132.763 92.1788C128.125 101.676 122.187 110.242 114.95 117.877C107.714 125.512 99.8277 132.775 91.2923 139.665C82.7568 146.369 74.5924 152.793 66.7992 158.939H137.773V200H1.39165V162.849Z" fill="black"/>
</svg>
