<svg width="152" height="200" viewBox="0 0 152 200" fill="none" xmlns="http://www.w3.org/2000/svg">
<path d="M5.47713 60.7735C6.38998 50.2762 8.85468 41.2523 12.8712 33.7017C17.0704 25.9668 22.3649 19.6133 28.7549 14.6409C35.1449 9.6685 42.4477 5.98525 50.6634 3.59115C59.0617 1.19705 68.0076 0 77.5013 0C85.8996 0 94.1153 1.01289 102.148 3.03867C110.364 4.88028 117.576 7.91896 123.783 12.1547C130.173 16.3904 135.285 21.9153 139.119 28.7293C142.953 35.3591 144.87 43.5543 144.87 53.3149C144.87 61.2339 142.862 68.6924 138.845 75.6906C135.011 82.6888 129.808 88.1215 123.235 91.989C132.912 95.6722 140.123 101.75 144.87 110.221C149.799 118.508 152.173 127.901 151.99 138.398C151.808 150.368 149.343 160.313 144.596 168.232C140.032 176.151 134.007 182.505 126.522 187.293C119.036 192.081 111.003 195.396 102.422 197.238C94.024 199.079 85.6257 200 77.2275 200C56.2318 200 38.4312 194.567 23.8255 183.702C9.21983 172.652 1.278 156.906 0 136.464H43.817C45.6427 144.567 49.7506 150.368 56.1405 153.867C62.5305 157.182 69.7421 158.84 77.7752 158.84C81.4266 158.84 84.8954 158.471 88.1817 157.735C91.6506 156.998 94.663 155.801 97.219 154.144C99.775 152.302 101.783 150 103.244 147.238C104.887 144.291 105.709 140.792 105.709 136.74C105.709 131.584 103.974 127.072 100.505 123.204C97.0364 119.337 90.9203 117.403 82.1569 117.403H59.7007V80.3867H74.7628C80.0573 80.3867 84.3477 79.6501 87.634 78.1768C90.9203 76.5193 93.385 74.5856 95.0281 72.3757C96.8538 70.1657 97.9493 67.8637 98.3144 65.4696C98.8621 62.8913 99.136 60.7735 99.136 59.116C98.9534 53.407 96.6713 48.9871 92.2896 45.8564C88.0904 42.5414 82.7046 40.884 76.132 40.884C68.6466 40.884 62.4392 42.6335 57.5098 46.1326C52.763 49.6317 49.8418 54.512 48.7464 60.7735H5.47713Z" fill="black"/>
</svg>
