<svg width="50" height="50" viewBox="0 0 50 50" fill="none" xmlns="http://www.w3.org/2000/svg">
<path d="M27.906 18.0685C26.8184 18.8439 25.4875 19.3 24.05 19.3C20.3773 19.3 17.4 16.3227 17.4 12.65C17.4 8.97731 20.3773 6 24.05 6C26.4307 6 28.5192 7.25099 29.694 9.13147M13.6 40.3656H18.5596C19.2062 40.3656 19.8489 40.4425 20.4757 40.5964L25.7161 41.8699C26.8532 42.1469 28.0377 42.1738 29.1866 41.9507L34.9807 40.8234C36.5112 40.5253 37.9192 39.7923 39.0226 38.719L43.122 34.7313C44.2927 33.5944 44.2927 31.7496 43.122 30.6108C42.068 29.5855 40.399 29.4701 39.2066 30.3396L34.4289 33.8252C33.7447 34.3254 32.9122 34.5947 32.0559 34.5947H27.4424L30.379 34.5945C32.0342 34.5945 33.3749 33.2903 33.3749 31.6802V31.0974C33.3749 29.7604 32.4396 28.5947 31.1067 28.2716L26.5743 27.1693C25.8367 26.9904 25.0813 26.9 24.322 26.9C22.4888 26.9 19.1706 28.4177 19.1706 28.4177L13.6 30.7473M40.2 14.55C40.2 18.2227 37.2227 21.2 33.55 21.2C29.8773 21.2 26.9 18.2227 26.9 14.55C26.9 10.8773 29.8773 7.9 33.55 7.9C37.2227 7.9 40.2 10.8773 40.2 14.55ZM6 29.94L6 40.96C6 42.0241 6 42.5561 6.20709 42.9626C6.38925 43.3201 6.67991 43.6107 7.03742 43.7929C7.44385 44 7.9759 44 9.04 44H10.56C11.6241 44 12.1561 44 12.5626 43.7929C12.9201 43.6108 13.2108 43.3201 13.3929 42.9626C13.6 42.5561 13.6 42.0241 13.6 40.96V29.94C13.6 28.8759 13.6 28.3439 13.3929 27.9374C13.2108 27.5799 12.9201 27.2892 12.5626 27.1071C12.1562 26.9 11.6241 26.9 10.56 26.9L9.04 26.9C7.9759 26.9 7.44385 26.9 7.03742 27.1071C6.67991 27.2892 6.38925 27.5799 6.20709 27.9374C6 28.3439 6 28.8759 6 29.94Z" stroke="black" stroke-width="4" stroke-linecap="round" stroke-linejoin="round"/>
</svg>
