<svg width="50" height="50" viewBox="0 0 50 50" fill="none" xmlns="http://www.w3.org/2000/svg">
<path d="M13.6 13.6L17.4 9.8M17.4 9.8L13.6 6M17.4 9.8H13.6C9.40264 9.8 6 13.2026 6 17.4M36.4 36.4L32.6 40.2M32.6 40.2L36.4 44M32.6 40.2H36.4C40.5974 40.2 44 36.7974 44 32.6M27.6926 27.6926C29.1789 28.4025 30.843 28.8 32.6 28.8C38.896 28.8 44 23.696 44 17.4C44 11.104 38.896 6 32.6 6C26.304 6 21.2 11.104 21.2 17.4C21.2 19.157 21.5975 20.8211 22.3074 22.3074M28.8 32.6C28.8 38.896 23.696 44 17.4 44C11.104 44 6 38.896 6 32.6C6 26.304 11.104 21.2 17.4 21.2C23.696 21.2 28.8 26.304 28.8 32.6Z" stroke="black" stroke-width="4" stroke-linecap="round" stroke-linejoin="round"/>
</svg>
