<svg width="305" height="367" viewBox="0 0 305 367" fill="none" xmlns="http://www.w3.org/2000/svg">
<g style="mix-blend-mode:screen">
<path d="M256.593 0.478775H48.3479C21.7111 0.478775 0.11377 22.2168 0.11377 49.027V584.255C0.11377 611.065 21.7111 632.803 48.3479 632.803H256.593C283.23 632.803 304.827 611.065 304.827 584.255V49.027C304.827 22.2168 283.23 0.478775 256.593 0.478775ZM303.358 583.87C303.358 610.089 282.246 631.339 256.197 631.339H48.7445C22.6955 631.339 1.58298 610.089 1.58298 583.87V49.4262C1.58298 23.2076 22.6955 1.95755 48.7445 1.95755H256.211C282.26 1.95755 303.373 23.2076 303.373 49.4262V583.885L303.358 583.87Z" fill="#706F6F"/>
</g>
</svg>
